<svg xmlns="http://www.w3.org/2000/svg" viewBox="0 0 1000 1000">
  <g id="head-3">
    <polygon points="119.96 384.95 119.96 639.01 509.96 892.03 509.96 384.95 119.96 384.95"
      style="fill:#4a2955" />
    <path
      d="M353.44,158.61h312.3a189,189,0,0,1,189,189V542.47a0,0,0,0,1,0,0H164.44a0,0,0,0,1,0,0V347.61a189,189,0,0,1,189-189Z"
      style="fill:#161f26" />
    <path d="M509.32,211.57V638.09H384.09l-203.49-132V362.32c0-83.26,104-150.75,232.36-150.75Z"
      transform="translate(0.28 0)" style="fill:#fa8cb2" />
    <polygon points="893.53 385.92 893.53 639.98 503.52 893 503.52 385.92 893.53 385.92"
      style="fill:#161f26" />
    <path d="M503.62,212.43V639H628.84l203.49-132V363.18c0-83.26-104-150.75-232.35-150.75Z"
      transform="translate(0.28 0)" style="fill:#f46461" />
  </g>
</svg>