<svg xmlns="http://www.w3.org/2000/svg" viewBox="0 0 1000 1000">
  <g id="head-12">
    <path d="M164.72,490.82C164.72,683.66,317,840,504.85,840S845,683.66,845,490.82"
      transform="translate(0.28)" style="fill:#f5b659" />
    <path d="M186,490.82c0,180.79,142.76,327.34,318.87,327.34S823.71,671.61,823.71,490.82"
      transform="translate(0.28)" style="fill:#ecdea0" />
    <path d="M228.5,490.82c0,156.68,123.72,283.7,276.35,283.7s276.34-127,276.34-283.7"
      transform="translate(0.28)" style="fill:#e18d27" />
    <polygon
      points="506.79 774.52 503.45 774.52 503.45 510.93 781.47 510.93 781.47 514.36 506.79 514.36 506.79 774.52"
      style="fill:#ecdea0" />
    <polygon
      points="695.33 688.51 497.93 508.38 760.74 598.31 759.68 601.56 512.31 516.91 697.55 685.94 695.33 688.51"
      style="fill:#ecdea0" />
    <polygon points="609.89 753.4 503.6 513.35 506.64 511.94 612.93 751.98 609.89 753.4"
      style="fill:#ecdea0" />
    <polygon
      points="506.79 774.52 503.45 774.52 503.45 514.36 228.77 514.36 228.77 510.93 506.79 510.93 506.79 774.52"
      style="fill:#ecdea0" />
    <polygon
      points="314.91 688.51 312.69 685.94 497.93 516.91 250.56 601.56 249.5 598.31 512.31 508.38 314.91 688.51"
      style="fill:#ecdea0" />
    <polygon points="400.35 753.4 397.31 751.98 503.6 511.94 506.64 513.35 400.35 753.4"
      style="fill:#ecdea0" />
    <g style="opacity:0.52;mix-blend-mode:overlay">
      <path
        d="M664.28,601.65A12.63,12.63,0,1,1,676.58,589,12.47,12.47,0,0,1,664.28,601.65Zm0-21.82a9.2,9.2,0,1,0,9,9.19A9.09,9.09,0,0,0,664.28,579.83Z"
        transform="translate(0.28)" style="fill:#aea4b3" />
    </g>
    <g style="opacity:0.52;mix-blend-mode:overlay">
      <path
        d="M643,579.83a12.63,12.63,0,1,1,12.3-12.63A12.49,12.49,0,0,1,643,579.83ZM643,558a9.2,9.2,0,1,0,9,9.2A9.09,9.09,0,0,0,643,558Z"
        transform="translate(0.28)" style="fill:#aea4b3" />
    </g>
    <g style="opacity:0.52;mix-blend-mode:overlay">
      <path
        d="M738.68,579.83c-12.64,0-22.93-10.56-22.93-23.54s10.29-23.54,22.93-23.54,22.92,10.56,22.92,23.54S751.32,579.83,738.68,579.83Zm0-43.65c-10.8,0-19.59,9-19.59,20.11s8.79,20.11,19.59,20.11,19.58-9,19.58-20.11S749.48,536.18,738.68,536.18Z"
        transform="translate(0.28)" style="fill:#aea4b3" />
    </g>
    <g style="opacity:0.52;mix-blend-mode:overlay">
      <path
        d="M685.53,536.18a12.63,12.63,0,1,1,12.3-12.63A12.47,12.47,0,0,1,685.53,536.18Zm0-21.82a9.2,9.2,0,1,0,9,9.19A9.08,9.08,0,0,0,685.53,514.36Z"
        transform="translate(0.28)" style="fill:#aea4b3" />
    </g>
    <g style="opacity:0.52;mix-blend-mode:overlay">
      <path
        d="M483.59,732.59c-12.64,0-22.93-10.56-22.93-23.54s10.29-23.54,22.93-23.54,22.93,10.56,22.93,23.54S496.23,732.59,483.59,732.59Zm0-43.65c-10.8,0-19.59,9-19.59,20.11s8.79,20.11,19.59,20.11,19.58-9,19.58-20.11S494.39,688.94,483.59,688.94Z"
        transform="translate(0.28)" style="fill:#aea4b3" />
    </g>
    <g style="opacity:0.52;mix-blend-mode:overlay">
      <path
        d="M451.7,688.94A12.63,12.63,0,1,1,464,676.32,12.48,12.48,0,0,1,451.7,688.94Zm0-21.82a9.2,9.2,0,1,0,9,9.2A9.09,9.09,0,0,0,451.7,667.12Z"
        transform="translate(0.28)" style="fill:#aea4b3" />
    </g>
    <g style="opacity:0.52;mix-blend-mode:overlay">
      <path
        d="M387.93,601.65A12.63,12.63,0,1,1,400.23,589,12.48,12.48,0,0,1,387.93,601.65Zm0-21.82a9.2,9.2,0,1,0,9,9.19A9.09,9.09,0,0,0,387.93,579.83Z"
        transform="translate(0.28)" style="fill:#aea4b3" />
    </g>
    <g style="opacity:0.52;mix-blend-mode:overlay">
      <path
        d="M324.16,558a12.63,12.63,0,1,1,12.3-12.62A12.47,12.47,0,0,1,324.16,558Zm0-21.82a9.2,9.2,0,1,0,9,9.2A9.09,9.09,0,0,0,324.16,536.18Z"
        transform="translate(0.28)" style="fill:#aea4b3" />
    </g>
    <g style="opacity:0.52;mix-blend-mode:overlay">
      <path
        d="M260.38,558a12.63,12.63,0,1,1,12.3-12.62A12.47,12.47,0,0,1,260.38,558Zm0-21.82a9.2,9.2,0,1,0,9,9.2A9.09,9.09,0,0,0,260.38,536.18Z"
        transform="translate(0.28)" style="fill:#aea4b3" />
    </g>
    <g style="opacity:0.52;mix-blend-mode:overlay">
      <path
        d="M292.27,645.3c-12.64,0-22.93-10.56-22.93-23.54s10.29-23.54,22.93-23.54,22.93,10.56,22.93,23.54S304.91,645.3,292.27,645.3Zm0-43.65c-10.8,0-19.59,9-19.59,20.11s8.79,20.11,19.59,20.11,19.59-9,19.59-20.11S303.07,601.65,292.27,601.65Z"
        transform="translate(0.28)" style="fill:#aea4b3" />
    </g>
    <g style="opacity:0.52;mix-blend-mode:overlay">
      <path
        d="M324.16,667.12a12.63,12.63,0,1,1,12.3-12.63A12.48,12.48,0,0,1,324.16,667.12Zm0-21.82a9.2,9.2,0,1,0,9,9.19A9.09,9.09,0,0,0,324.16,645.3Z"
        transform="translate(0.28)" style="fill:#aea4b3" />
    </g>
    <g style="opacity:0.52;mix-blend-mode:overlay">
      <path
        d="M600.5,667.12a12.63,12.63,0,1,1,12.3-12.63A12.48,12.48,0,0,1,600.5,667.12Zm0-21.82a9.2,9.2,0,1,0,9,9.19A9.08,9.08,0,0,0,600.5,645.3Z"
        transform="translate(0.28)" style="fill:#aea4b3" />
    </g>
    <g style="opacity:0.52;mix-blend-mode:overlay">
      <path
        d="M664.28,710.76a12.63,12.63,0,1,1,12.3-12.62A12.47,12.47,0,0,1,664.28,710.76Zm0-21.82a9.2,9.2,0,1,0,9,9.2A9.09,9.09,0,0,0,664.28,688.94Z"
        transform="translate(0.28)" style="fill:#aea4b3" />
    </g>
    <g style="opacity:0.52;mix-blend-mode:overlay">
      <path
        d="M611.13,732.59c-12.64,0-22.92-10.56-22.92-23.54s10.28-23.54,22.92-23.54,22.93,10.56,22.93,23.54S623.77,732.59,611.13,732.59Zm0-43.65c-10.8,0-19.58,9-19.58,20.11s8.78,20.11,19.58,20.11,19.59-9,19.59-20.11S621.94,688.94,611.13,688.94Z"
        transform="translate(0.28)" style="fill:#aea4b3" />
    </g>
    <g style="opacity:0.52;mix-blend-mode:overlay">
      <path
        d="M706.79,645.3a12.63,12.63,0,1,1,12.3-12.63A12.49,12.49,0,0,1,706.79,645.3Zm0-21.83a9.2,9.2,0,1,0,9,9.2A9.09,9.09,0,0,0,706.79,623.47Z"
        transform="translate(0.28)" style="fill:#aea4b3" />
    </g>
    <g style="opacity:0.52;mix-blend-mode:overlay">
      <path
        d="M473,579.83a12.63,12.63,0,1,1,12.3-12.63A12.49,12.49,0,0,1,473,579.83ZM473,558a9.2,9.2,0,1,0,9,9.2A9.09,9.09,0,0,0,473,558Z"
        transform="translate(0.28)" style="fill:#aea4b3" />
    </g>
    <g style="opacity:0.52;mix-blend-mode:overlay">
      <path
        d="M430.45,536.18a12.63,12.63,0,1,1,12.29-12.63A12.48,12.48,0,0,1,430.45,536.18Zm0-21.82a9.2,9.2,0,1,0,8.95,9.19A9.09,9.09,0,0,0,430.45,514.36Z"
        transform="translate(0.28)" style="fill:#aea4b3" />
    </g>
    <g style="opacity:0.52;mix-blend-mode:overlay">
      <path
        d="M579.25,558a12.63,12.63,0,1,1,12.3-12.62A12.48,12.48,0,0,1,579.25,558Zm0-21.82a9.2,9.2,0,1,0,9,9.2A9.09,9.09,0,0,0,579.25,536.18Z"
        transform="translate(0.28)" style="fill:#aea4b3" />
    </g>
    <g style="opacity:0.52;mix-blend-mode:overlay">
      <path
        d="M558,601.65A12.63,12.63,0,1,1,570.29,589,12.48,12.48,0,0,1,558,601.65Zm0-21.82a9.2,9.2,0,1,0,9,9.19A9.09,9.09,0,0,0,558,579.83Z"
        transform="translate(0.28)" style="fill:#aea4b3" />
    </g>
    <g style="opacity:0.52;mix-blend-mode:overlay">
      <path
        d="M494.22,649.82a17.15,17.15,0,1,1,16.7-17.15A17,17,0,0,1,494.22,649.82Zm0-30.87a13.72,13.72,0,1,0,13.36,13.72A13.56,13.56,0,0,0,494.22,619Z"
        transform="translate(0.28)" style="fill:#aea4b3" />
    </g>
    <g style="opacity:0.52;mix-blend-mode:overlay">
      <path
        d="M536.73,710.76A12.63,12.63,0,1,1,549,698.14,12.48,12.48,0,0,1,536.73,710.76Zm0-21.82a9.2,9.2,0,1,0,9,9.2A9.09,9.09,0,0,0,536.73,688.94Z"
        transform="translate(0.28)" style="fill:#aea4b3" />
    </g>
    <g style="opacity:0.52;mix-blend-mode:overlay">
      <path
        d="M558,758.93a17.15,17.15,0,1,1,16.7-17.15A16.95,16.95,0,0,1,558,758.93Zm0-30.86a13.72,13.72,0,1,0,13.36,13.71A13.55,13.55,0,0,0,558,728.07Z"
        transform="translate(0.28)" style="fill:#aea4b3" />
    </g>
    <g style="opacity:0.52;mix-blend-mode:overlay">
      <path
        d="M366.67,710.76A12.63,12.63,0,1,1,379,698.14,12.48,12.48,0,0,1,366.67,710.76Zm0-21.82a9.2,9.2,0,1,0,9,9.2A9.09,9.09,0,0,0,366.67,688.94Z"
        transform="translate(0.28)" style="fill:#aea4b3" />
    </g>
    <rect x="164.72" y="490.82" width="680.24" height="21.82"
      transform="translate(1009.97 1003.46) rotate(-180)"
      style="fill:#aea4b3;opacity:0.52;mix-blend-mode:overlay" />
    <path d="M845.81,507.17C845.81,314.33,693.53,158,505.69,158S165.57,314.33,165.57,507.17"
      transform="translate(0.28)" style="fill:#f5b659" />
    <path d="M824.55,507.17c0-180.79-142.76-327.35-318.86-327.35S186.82,326.38,186.82,507.17"
      transform="translate(0.28)" style="fill:#ecdea0" />
    <path d="M782,507.17c0-156.69-123.73-283.7-276.35-283.7s-276.35,127-276.35,283.7"
      transform="translate(0.28)" style="fill:#e18d27" />
    <polygon
      points="504.29 223.47 507.63 223.47 507.63 487.06 229.62 487.06 229.62 483.63 504.29 483.63 504.29 223.47"
      style="fill:#ecdea0" />
    <polygon
      points="315.76 309.48 513.15 489.61 250.35 399.68 251.4 396.43 498.77 481.07 313.54 312.04 315.76 309.48"
      style="fill:#ecdea0" />
    <polygon points="401.19 244.58 507.49 484.63 504.44 486.05 398.15 246 401.19 244.58"
      style="fill:#ecdea0" />
    <polygon
      points="504.29 223.47 507.63 223.47 507.63 483.63 782.31 483.63 782.31 487.06 504.29 487.06 504.29 223.47"
      style="fill:#ecdea0" />
    <polygon
      points="696.17 309.48 698.39 312.04 513.15 481.07 760.53 396.43 761.58 399.68 498.77 489.61 696.17 309.48"
      style="fill:#ecdea0" />
    <polygon points="610.73 244.58 613.77 246 507.49 486.05 504.44 484.63 610.73 244.58"
      style="fill:#ecdea0" />
    <g style="opacity:0.52;mix-blend-mode:overlay">
      <path
        d="M346.26,396.34A12.63,12.63,0,1,1,334,409,12.48,12.48,0,0,1,346.26,396.34Zm0,21.82a9.2,9.2,0,1,0-9-9.2A9.09,9.09,0,0,0,346.26,418.16Z"
        transform="translate(0.28)" style="fill:#aea4b3" />
    </g>
    <g style="opacity:0.52;mix-blend-mode:overlay">
      <path
        d="M367.51,418.16a12.63,12.63,0,1,1-12.29,12.63A12.48,12.48,0,0,1,367.51,418.16Zm0,21.82a9.2,9.2,0,1,0-8.95-9.19A9.08,9.08,0,0,0,367.51,440Z"
        transform="translate(0.28)" style="fill:#aea4b3" />
    </g>
    <g style="opacity:0.52;mix-blend-mode:overlay">
      <path
        d="M271.85,418.16c12.65,0,22.93,10.56,22.93,23.54s-10.28,23.54-22.93,23.54-22.92-10.56-22.92-23.54S259.21,418.16,271.85,418.16Zm0,43.65c10.81,0,19.59-9,19.59-20.11s-8.78-20.11-19.59-20.11-19.58,9-19.58,20.11S261.05,461.81,271.85,461.81Z"
        transform="translate(0.28)" style="fill:#aea4b3" />
    </g>
    <g style="opacity:0.52;mix-blend-mode:overlay">
      <path
        d="M325,461.81a12.63,12.63,0,1,1-12.3,12.62A12.48,12.48,0,0,1,325,461.81Zm0,21.82a9.2,9.2,0,1,0-9-9.2A9.09,9.09,0,0,0,325,483.63Z"
        transform="translate(0.28)" style="fill:#aea4b3" />
    </g>
    <g style="opacity:0.52;mix-blend-mode:overlay">
      <path
        d="M527,265.4c12.64,0,22.92,10.56,22.92,23.54S539.59,312.48,527,312.48,504,301.92,504,288.94,514.3,265.4,527,265.4Zm0,43.65c10.8,0,19.58-9,19.58-20.11s-8.78-20.11-19.58-20.11-19.59,9-19.59,20.11S516.15,309.05,527,309.05Z"
        transform="translate(0.28)" style="fill:#aea4b3" />
    </g>
    <g style="opacity:0.52;mix-blend-mode:overlay">
      <path
        d="M558.83,309.05a12.63,12.63,0,1,1-12.3,12.62A12.47,12.47,0,0,1,558.83,309.05Zm0,21.82a9.2,9.2,0,1,0-9-9.2A9.09,9.09,0,0,0,558.83,330.87Z"
        transform="translate(0.28)" style="fill:#aea4b3" />
    </g>
    <g style="opacity:0.52;mix-blend-mode:overlay">
      <path
        d="M622.61,396.34A12.63,12.63,0,1,1,610.31,409,12.47,12.47,0,0,1,622.61,396.34Zm0,21.82a9.2,9.2,0,1,0-9-9.2A9.09,9.09,0,0,0,622.61,418.16Z"
        transform="translate(0.28)" style="fill:#aea4b3" />
    </g>
    <g style="opacity:0.52;mix-blend-mode:overlay">
      <path
        d="M686.38,440a12.63,12.63,0,1,1-12.3,12.63A12.49,12.49,0,0,1,686.38,440Zm0,21.83a9.2,9.2,0,1,0-9-9.2A9.09,9.09,0,0,0,686.38,461.81Z"
        transform="translate(0.28)" style="fill:#aea4b3" />
    </g>
    <g style="opacity:0.52;mix-blend-mode:overlay">
      <path
        d="M750.15,440a12.63,12.63,0,1,1-12.3,12.63A12.49,12.49,0,0,1,750.15,440Zm0,21.83a9.2,9.2,0,1,0-9-9.2A9.09,9.09,0,0,0,750.15,461.81Z"
        transform="translate(0.28)" style="fill:#aea4b3" />
    </g>
    <g style="opacity:0.52;mix-blend-mode:overlay">
      <path
        d="M718.26,352.69c12.65,0,22.93,10.56,22.93,23.54s-10.28,23.54-22.93,23.54-22.92-10.56-22.92-23.54S705.62,352.69,718.26,352.69Zm0,43.65c10.81,0,19.59-9,19.59-20.11s-8.78-20.11-19.59-20.11-19.58,9-19.58,20.11S707.46,396.34,718.26,396.34Z"
        transform="translate(0.28)" style="fill:#aea4b3" />
    </g>
    <g style="opacity:0.52;mix-blend-mode:overlay">
      <path
        d="M686.38,330.87a12.63,12.63,0,1,1-12.3,12.62A12.48,12.48,0,0,1,686.38,330.87Zm0,21.82a9.2,9.2,0,1,0-9-9.2A9.09,9.09,0,0,0,686.38,352.69Z"
        transform="translate(0.28)" style="fill:#aea4b3" />
    </g>
    <g style="opacity:0.52;mix-blend-mode:overlay">
      <path
        d="M410,330.87a12.63,12.63,0,1,1-12.3,12.62A12.48,12.48,0,0,1,410,330.87Zm0,21.82a9.2,9.2,0,1,0-9-9.2A9.09,9.09,0,0,0,410,352.69Z"
        transform="translate(0.28)" style="fill:#aea4b3" />
    </g>
    <g style="opacity:0.52;mix-blend-mode:overlay">
      <path
        d="M346.26,287.22A12.63,12.63,0,1,1,334,299.85,12.49,12.49,0,0,1,346.26,287.22Zm0,21.83a9.2,9.2,0,1,0-9-9.2A9.09,9.09,0,0,0,346.26,309.05Z"
        transform="translate(0.28)" style="fill:#aea4b3" />
    </g>
    <g style="opacity:0.52;mix-blend-mode:overlay">
      <path
        d="M399.4,265.4c12.64,0,22.93,10.56,22.93,23.54S412,312.48,399.4,312.48s-22.93-10.56-22.93-23.54S386.76,265.4,399.4,265.4Zm0,43.65c10.8,0,19.59-9,19.59-20.11s-8.79-20.11-19.59-20.11-19.59,9-19.59,20.11S388.6,309.05,399.4,309.05Z"
        transform="translate(0.28)" style="fill:#aea4b3" />
    </g>
    <g style="opacity:0.52;mix-blend-mode:overlay">
      <path
        d="M303.74,352.69a12.63,12.63,0,1,1-12.3,12.63A12.48,12.48,0,0,1,303.74,352.69Zm0,21.82a9.2,9.2,0,1,0-9-9.19A9.09,9.09,0,0,0,303.74,374.51Z"
        transform="translate(0.28)" style="fill:#aea4b3" />
    </g>
    <g style="opacity:0.52;mix-blend-mode:overlay">
      <path
        d="M537.58,418.16a12.63,12.63,0,1,1-12.3,12.63A12.47,12.47,0,0,1,537.58,418.16Zm0,21.82a9.2,9.2,0,1,0-9-9.19A9.08,9.08,0,0,0,537.58,440Z"
        transform="translate(0.28)" style="fill:#aea4b3" />
    </g>
    <g style="opacity:0.52;mix-blend-mode:overlay">
      <path
        d="M580.09,461.81a12.63,12.63,0,1,1-12.3,12.62A12.48,12.48,0,0,1,580.09,461.81Zm0,21.82a9.2,9.2,0,1,0-9-9.2A9.09,9.09,0,0,0,580.09,483.63Z"
        transform="translate(0.28)" style="fill:#aea4b3" />
    </g>
    <g style="opacity:0.52;mix-blend-mode:overlay">
      <path
        d="M431.29,440A12.63,12.63,0,1,1,419,452.61,12.49,12.49,0,0,1,431.29,440Zm0,21.83a9.2,9.2,0,1,0-9-9.2A9.09,9.09,0,0,0,431.29,461.81Z"
        transform="translate(0.28)" style="fill:#aea4b3" />
    </g>
    <g style="opacity:0.52;mix-blend-mode:overlay">
      <path
        d="M452.54,396.34A12.63,12.63,0,1,1,440.25,409,12.47,12.47,0,0,1,452.54,396.34Zm0,21.82a9.2,9.2,0,1,0-9-9.2A9.09,9.09,0,0,0,452.54,418.16Z"
        transform="translate(0.28)" style="fill:#aea4b3" />
    </g>
    <g style="opacity:0.52;mix-blend-mode:overlay">
      <path
        d="M516.32,348.17a17.15,17.15,0,1,1-16.7,17.15A16.95,16.95,0,0,1,516.32,348.17Zm0,30.86A13.72,13.72,0,1,0,503,365.32,13.55,13.55,0,0,0,516.32,379Z"
        transform="translate(0.28)" style="fill:#aea4b3" />
    </g>
    <g style="opacity:0.52;mix-blend-mode:overlay">
      <path
        d="M473.8,287.22a12.63,12.63,0,1,1-12.3,12.63A12.49,12.49,0,0,1,473.8,287.22Zm0,21.83a9.2,9.2,0,1,0-9-9.2A9.09,9.09,0,0,0,473.8,309.05Z"
        transform="translate(0.28)" style="fill:#aea4b3" />
    </g>
    <g style="opacity:0.52;mix-blend-mode:overlay">
      <path
        d="M452.54,239.06a17.15,17.15,0,1,1-16.7,17.14A17,17,0,0,1,452.54,239.06Zm0,30.86a13.72,13.72,0,1,0-13.36-13.72A13.56,13.56,0,0,0,452.54,269.92Z"
        transform="translate(0.28)" style="fill:#aea4b3" />
    </g>
    <g style="opacity:0.52;mix-blend-mode:overlay">
      <path
        d="M643.86,287.22a12.63,12.63,0,1,1-12.3,12.63A12.49,12.49,0,0,1,643.86,287.22Zm0,21.83a9.2,9.2,0,1,0-9-9.2A9.09,9.09,0,0,0,643.86,309.05Z"
        transform="translate(0.28)" style="fill:#aea4b3" />
    </g>
    <rect x="165.84" y="485.34" width="680.24" height="21.82"
      style="fill:#aea4b3;opacity:0.52;mix-blend-mode:overlay" />
  </g>
</svg>