<svg xmlns="http://www.w3.org/2000/svg" viewBox="0 0 1000 1000">
  <g id="eyes-4">
    <path d="M438.33,350.2v153L297.06,456.15V418.31c0-60.4,61.45-101.37,117.21-78.14Z"
      transform="translate(-1.66 0)" style="fill:#ba3d11" />
    <circle cx="377.8" cy="420.83" r="35.32" style="fill:#e1ae39" />
    <circle cx="377.8" cy="420.83" r="23.55" style="fill:#4a3022" />
    <path d="M580.14,350.06v153L721.41,456V418.17c0-60.4-61.45-101.37-117.21-78.14Z"
      transform="translate(-1.66 0)" style="fill:#a31905" />
    <circle cx="637.34" cy="420.69" r="35.32" style="fill:#e17728" />
    <circle cx="637.34" cy="420.69" r="23.55" style="fill:#021213" />
    <polygon
      points="343.98 598.73 341 596.12 422.91 502.5 422.91 432.61 426.88 432.61 426.88 503.99 343.98 598.73"
      style="fill:#a31905" />
    <path
      d="M263.73,540.54h-2v-4h2a245.91,245.91,0,0,0,126.49-35l2,3.4A249.87,249.87,0,0,1,263.73,540.54Z"
      transform="translate(-1.66 0)" style="fill:#ba3d11" />
    <polygon
      points="671.16 598.59 588.26 503.85 588.26 432.47 592.23 432.47 592.23 502.36 674.15 595.98 671.16 598.59"
      style="fill:#6c1908" />
    <path d="M756.72,540.4h-2a249.84,249.84,0,0,1-128.52-35.6l2-3.4a245.9,245.9,0,0,0,126.48,35h2Z"
      transform="translate(-1.66 0)" style="fill:#a31905" />
  </g>
</svg>