<svg xmlns="http://www.w3.org/2000/svg" viewBox="0 0 1000 1000">
  <g id="eyes-7">
    <path
      d="M442.45,470.19H403.52A79.15,79.15,0,0,1,324.37,391V276.19l143.39-75.91v135A33.75,33.75,0,0,1,434,369h0l8.43,8.43a59.63,59.63,0,0,1,0,84.35h0"
      transform="translate(0.34)" style="fill:#883a62" />
    <path
      d="M408.59,452.85h33.74a0,0,0,0,1,0,0v33.74a16.87,16.87,0,0,1-16.87,16.87h0a16.87,16.87,0,0,1-16.87-16.87V452.85A0,0,0,0,1,408.59,452.85Z"
      style="fill:#4d2f47" />
    <path
      d="M315.93,385.84h48.74a77.78,77.78,0,0,1,77.78,77.79v23.42H434V453.32H400.75a59,59,0,0,1-59-59.05H324.37Z"
      transform="translate(0.34)" style="fill:#fae7db" />
    <circle cx="388.91" cy="415.36" r="29.99" style="fill:#fa8424" />
    <circle cx="388.91" cy="415.36" r="12.18" style="fill:#4d2f47" />
    <path
      d="M577.3,469.78h38.94a79.14,79.14,0,0,0,79.14-79.14V275.79L552,199.87v135a33.75,33.75,0,0,0,33.74,33.74h0L577.3,377a59.65,59.65,0,0,0,0,84.35h0"
      transform="translate(0.34)" style="fill:#4d2f47" />
    <path
      d="M594.63,452.44h0a16.87,16.87,0,0,1,16.87,16.87v33.74a0,0,0,0,1,0,0H577.77a0,0,0,0,1,0,0V469.31A16.87,16.87,0,0,1,594.63,452.44Z"
      transform="translate(1189.61 955.5) rotate(180)" style="fill:#4d2f47" />
    <path
      d="M703.82,385.44H655.09a77.78,77.78,0,0,0-77.79,77.78v23.43h8.43V452.91H619a59,59,0,0,0,59-59h17.34Z"
      transform="translate(0.34)" style="fill:#f9c1c0" />
    <circle cx="631.53" cy="414.96" r="29.99" style="fill:#c32429" />
    <circle cx="631.53" cy="414.96" r="12.18" style="fill:#010a15" />
    <path
      d="M447.34,460h-6.51a74.62,74.62,0,0,0-74.53-74.53H297.45v-6.51H366.3A81.13,81.13,0,0,1,447.34,460Z"
      transform="translate(0.34)" style="fill:#361a11" />
    <path
      d="M570.62,460.87h6.51a74.62,74.62,0,0,1,74.53-74.53h68.85v-6.51H651.66A81.14,81.14,0,0,0,570.62,460.87Z"
      transform="translate(0.34)" style="fill:#361a11" />
    <path
      d="M366.52,496.7v-6.51A74.62,74.62,0,0,1,292,415.65V346.81h-6.51v68.84A81.13,81.13,0,0,0,366.52,496.7Z"
      transform="translate(0.34)" style="fill:#727fbd" />
    <path
      d="M341.16,504.3V500a49.84,49.84,0,0,1-49.79-49.79v-46H287v46A54.2,54.2,0,0,0,341.16,504.3Z"
      transform="translate(0.34)" style="fill:#727fbd" />
    <g style="opacity:0.56;mix-blend-mode:overlay">
      <path
        d="M660.22,496.15v-6.52a74.61,74.61,0,0,0,74.53-74.53V346.26h6.51V415.1A81.13,81.13,0,0,1,660.22,496.15Z"
        transform="translate(0.34)" style="fill:#4d2f47" />
    </g>
    <g style="opacity:0.56;mix-blend-mode:overlay">
      <path
        d="M685.58,503.75V499.4a49.85,49.85,0,0,0,49.79-49.79v-2.08l4.35-18v20.08A54.2,54.2,0,0,1,685.58,503.75Z"
        transform="translate(0.34)" style="fill:#4d2f47" />
    </g>
  </g>
</svg>