<svg xmlns="http://www.w3.org/2000/svg" viewBox="0 0 1000 1000">
  <g id="ears-2">
    <circle cx="133.72" cy="393.44" r="61.91" style="fill:#883a62" />
    <circle cx="154.36" cy="469.11" r="41.27" style="fill:#883a62" />
    <circle cx="181.87" cy="427.84" r="41.27" style="fill:#542f5f" />
    <g style="opacity:0.5700000000000001;mix-blend-mode:overlay">
      <line x1="126.08" y1="359.82" x2="194.87" y2="428.6"
        style="fill:none;stroke:#070707;stroke-miterlimit:10;stroke-width:3px" />
      <line x1="181.87" y1="436.67" x2="146.52" y2="472.03"
        style="fill:none;stroke:#070707;stroke-miterlimit:10;stroke-width:3px" />
      <line x1="155.36" y1="392.49" x2="128.85" y2="419"
        style="fill:none;stroke:#070707;stroke-miterlimit:10;stroke-width:3px" />
      <line x1="164.2" y1="401.32" x2="128.85" y2="436.67"
        style="fill:none;stroke:#070707;stroke-miterlimit:10;stroke-width:3px" />
    </g>
    <circle cx="119.85" cy="534.05" r="53.19" style="fill:#f96020" />
    <circle cx="119.84" cy="534.05" r="46.55" style="fill:#d74816" />
    <circle cx="890.1" cy="392.85" r="61.91" style="fill:#883a62" />
    <circle cx="869.47" cy="468.51" r="41.27" style="fill:#883a62" />
    <circle cx="841.95" cy="427.24" r="41.27" style="fill:#542f5f" />
    <g style="opacity:0.5700000000000001;mix-blend-mode:overlay">
      <line x1="897.75" y1="359.22" x2="828.96" y2="428.01"
        style="fill:none;stroke:#070707;stroke-miterlimit:10;stroke-width:3px" />
      <line x1="841.95" y1="436.08" x2="877.31" y2="471.43"
        style="fill:none;stroke:#070707;stroke-miterlimit:10;stroke-width:3px" />
      <line x1="868.47" y1="391.89" x2="894.98" y2="418.41"
        style="fill:none;stroke:#070707;stroke-miterlimit:10;stroke-width:3px" />
      <line x1="859.63" y1="400.73" x2="894.98" y2="436.08"
        style="fill:none;stroke:#070707;stroke-miterlimit:10;stroke-width:3px" />
    </g>
    <circle cx="903.98" cy="533.46" r="53.19" style="fill:#f96020" />
    <circle cx="903.99" cy="533.46" r="46.55" style="fill:#d74816" />
  </g>
</svg>