<svg xmlns="http://www.w3.org/2000/svg" viewBox="0 0 1000 1000">
  <g id="ears-6">
    <path
      d="M305.64,230v64A22.69,22.69,0,0,1,283,316.61H262.15a97.69,97.69,0,0,0-37.57,7.51h0a87.1,87.1,0,0,1-112.14-43L108,271.88a86.58,86.58,0,0,1,44.06-116.81h0A86.61,86.61,0,0,1,208.5,151l89.26,23.81H187.46a39.39,39.39,0,0,0-39.39,39.39h0a39.4,39.4,0,0,0,39.39,39.39h4.85A39.42,39.42,0,0,0,212.58,248l40.76-24.46a42.8,42.8,0,0,1,52.3,6.44Z"
      transform="translate(0.34)" style="fill:#542f5f" />
    <path
      d="M722.64,230.16v64a22.68,22.68,0,0,0,22.68,22.68h20.81a97.64,97.64,0,0,1,37.56,7.51h0a87.11,87.11,0,0,0,112.15-42.95l4.42-9.29a86.58,86.58,0,0,0-44.07-116.81h0a86.58,86.58,0,0,0-56.41-4.07L730.51,175h110.3A39.39,39.39,0,0,1,880.2,214.4h0a39.38,39.38,0,0,1-39.39,39.39H836a39.42,39.42,0,0,1-20.27-5.61l-40.77-24.46a42.8,42.8,0,0,0-52.29,6.44Z"
      transform="translate(0.34)" style="fill:#111c0d" />
  </g>
</svg>