<svg xmlns="http://www.w3.org/2000/svg" viewBox="0 0 1000 1000">
  <g id="ears-7">
    <path
      d="M694.83,220.19l69.31-69.31a7.5,7.5,0,0,1,12.66,3.83h0A27.7,27.7,0,0,0,804,177h0a27.71,27.71,0,0,0,27.71-27.71V117.06a28.31,28.31,0,0,0-42.06-24.75l-10.85,6a6.57,6.57,0,0,1-9.67-6.83l1.35-8.09a18.61,18.61,0,0,0-18.36-21.67h0a18.6,18.6,0,0,0-17.89,13.5L728,96.91a7.34,7.34,0,0,1-13.16,2l-10.69-16A13.77,13.77,0,0,0,683,80.82h0a13.76,13.76,0,0,0,0,19.47l12.5,12.5a11,11,0,0,1-5.12,18.5h0a11,11,0,0,1-13.14-7.21l-7.15-21.44a17.67,17.67,0,0,0-16.77-12.09h0A17.68,17.68,0,0,0,637.93,117l3.94,6.89A11.41,11.41,0,0,1,632,141h0A11.41,11.41,0,0,1,620.83,132l-6.09-27.38a36.4,36.4,0,0,0-35.53-28.5h0a36.4,36.4,0,0,0-35.31,27.57L514.79,220.19"
      transform="translate(9.03 13)" style="fill:#172027" />
    <path
      d="M321.44,218.44l-69.31-69.31A7.49,7.49,0,0,0,239.48,153h0a27.7,27.7,0,0,1-27.17,22.27h0a27.7,27.7,0,0,1-27.7-27.7V115.31a28.31,28.31,0,0,1,42.06-24.74l10.84,6a6.57,6.57,0,0,0,9.67-6.82l-1.34-8.1A18.6,18.6,0,0,1,264.19,60h0a18.62,18.62,0,0,1,17.9,13.5l6.19,21.66a7.34,7.34,0,0,0,13.16,2l10.69-16a13.77,13.77,0,0,1,21.19-2.1h0a13.78,13.78,0,0,1,0,19.47L320.81,111a11,11,0,0,0,5.13,18.5h0a11,11,0,0,0,13.14-7.21l7.14-21.43A17.68,17.68,0,0,1,363,88.81h0a17.68,17.68,0,0,1,15.36,26.45l-3.94,6.89a11.4,11.4,0,0,0,9.9,17.07h0a11.41,11.41,0,0,0,11.14-8.93l6.08-27.38A36.4,36.4,0,0,1,437.06,74.4h0A36.4,36.4,0,0,1,472.37,102l29.12,116.47"
      transform="translate(9.03 13)" style="fill:#542f5f" />
  </g>
</svg>