<svg xmlns="http://www.w3.org/2000/svg" viewBox="0 0 1000 1000">
  <g id="nose-3">
    <path
      d="M543.92,542h0a37.42,37.42,0,0,1-37.42-37.42v-67h41.72a39.48,39.48,0,0,1,38.45,48.47l-6.31,27A37.43,37.43,0,0,1,543.92,542Z"
      transform="translate(0.28 0)" style="fill:#4d2f47" />
    <circle cx="543.71" cy="505.06" r="24.74" style="fill:#eb6447" />
    <circle cx="543.37" cy="505.4" r="18.3" style="fill:#3d2f39" />
    <path
      d="M469.21,541.7h0a37.42,37.42,0,0,0,37.42-37.42v-67H464.9a39.48,39.48,0,0,0-38.45,48.47l6.32,27A37.41,37.41,0,0,0,469.21,541.7Z"
      transform="translate(0.28 0)" style="fill:#883a62" />
    <circle cx="469.96" cy="504.76" r="24.74" style="fill:#eb6447" />
    <circle cx="470.3" cy="505.1" r="18.3" style="fill:#3d2f39" />
  </g>
</svg>