<svg xmlns="http://www.w3.org/2000/svg" viewBox="0 0 1000 1000">
  <g id="nose-1">
    <path
      d="M515.59,360.78h0A111.68,111.68,0,0,1,627.27,472.46V598.54a0,0,0,0,1,0,0H403.92a0,0,0,0,1,0,0V472.46A111.68,111.68,0,0,1,515.59,360.78Z"
      style="fill:#883a62;opacity:0.7000000000000001" />
    <path
      d="M458.09,527.5h59.68V427.43H476.51a24.44,24.44,0,0,0-23,16.17l-18.42,51.17A24.45,24.45,0,0,0,458.09,527.5Z"
      transform="translate(9.03 13)" style="fill:#fa8cb2" />
    <circle cx="479.97" cy="487.27" r="18.01" style="fill:#542f5f" />
    <path
      d="M551.83,527.9H506.16V427.83h27.25a24.45,24.45,0,0,1,23,16.17l18.42,51.17A24.45,24.45,0,0,1,551.83,527.9Z"
      transform="translate(9.03 13)" style="fill:#f46461" />
    <circle cx="548.01" cy="486.55" r="18.01" style="fill:#172027" />
  </g>
</svg>