<svg xmlns="http://www.w3.org/2000/svg" viewBox="0 0 1000 1000">
  <g id="earrings-1">
    <circle cx="141.68" cy="475.44" r="61.24" style="fill:#f26227" />
    <circle cx="141.68" cy="475.44" r="53.6" style="fill:#d74b27" />
    <g>
      <path
        d="M134.36,420.84h4.82a6.06,6.06,0,0,0,1,.07c1.4.12,2.79.26,4.18.48A48.47,48.47,0,0,1,154,423.9a49.56,49.56,0,0,1,29.69,31,47.44,47.44,0,0,1,2,9.2c.13,1.13.24,2.25.28,3.39a1.48,1.48,0,0,0,.07.75v4a1.37,1.37,0,0,0-.07.75,42.22,42.22,0,0,1-.48,4.75,47.88,47.88,0,0,1-5,15.23,49.3,49.3,0,0,1-47.87,26.48,47.84,47.84,0,0,1-9.43-1.7,49.07,49.07,0,0,1-27.44-19.8,49.09,49.09,0,0,1-8.35-23.6,12.49,12.49,0,0,0-.15-1.73c0-.57,0-1.13,0-1.69,0-1,0-2,0-3.05a.57.57,0,0,0,.07-.36,47.07,47.07,0,0,1,.76-6.38,48.23,48.23,0,0,1,4.09-12.43,49.32,49.32,0,0,1,41.06-27.75A9.08,9.08,0,0,0,134.36,420.84ZM95.57,470.21A41.17,41.17,0,1,0,136.72,429,41.12,41.12,0,0,0,95.57,470.21Z"
        transform="translate(4.96 5.26)" style="fill:#f79421" />
      <path
        d="M149.13,468.75a19.6,19.6,0,0,1,5.05,1.56,10.88,10.88,0,0,1,4.87,4.33,11.08,11.08,0,0,1,1.4,4.28,16.24,16.24,0,0,1-.25,5.73,10.06,10.06,0,0,1-6.28,7.4,23.28,23.28,0,0,1-5.33,1.41c-1.23.19-2.46.33-3.71.4-.43,0-.44,0-.44.48v7.33c0,.46,0,.46-.47.46h-5.35c-.52,0-.49,0-.49-.48v-7.09c0-.59.05-.53-.54-.53h-5.34c-.43,0-.43,0-.43.44,0,2.38,0,4.76,0,7.14,0,.55.05.52-.5.52H126c-.5,0-.51,0-.51-.52v-7.33c0-.17-.06-.27-.24-.25s-.26,0-.38,0H113.19c-.21,0-.31,0-.31-.29q0-2.62,0-5.25c0-.25.1-.32.34-.31h3.26a9.33,9.33,0,0,0,2-.26,1.76,1.76,0,0,0,1.43-1.45,11,11,0,0,0,.26-2.63q0-10.31,0-20.61c0-2.29,0-4.57,0-6.86a11.52,11.52,0,0,0-.24-2.48,1.88,1.88,0,0,0-1.58-1.55,12.77,12.77,0,0,0-2.54-.23c-.82,0-1.64,0-2.46,0-.43,0-.43,0-.43-.45v-4.87c0-.56,0-.52.5-.52H125c.52,0,.52,0,.52-.51v-6.9c0-.12,0-.25,0-.38s.09-.25.26-.24h5.54c.56,0,.51-.06.51.5,0,2.32,0,4.63,0,6.95,0,.65,0,.58.58.58h5.3c.43,0,.43,0,.43-.46v-7c0-.11,0-.22,0-.33s.07-.26.25-.25h5.54c.55,0,.52-.08.52.54V446c0,.36,0,.35.37.38a30.6,30.6,0,0,1,5.63.91,16.49,16.49,0,0,1,3,1.11,8.5,8.5,0,0,1,4.65,5.6,13.15,13.15,0,0,1,.11,6.68,9.54,9.54,0,0,1-3.85,5.55,17,17,0,0,1-4.93,2.34C149.3,468.61,149.19,468.58,149.13,468.75Zm-17.31,11.44c0,2.55,0,5.1,0,7.66,0,.41,0,.41.41.41H135a40.14,40.14,0,0,0,5.9-.28,14.22,14.22,0,0,0,3.38-.86,5.83,5.83,0,0,0,3.5-3.84,11,11,0,0,0,.24-5.51,5.78,5.78,0,0,0-2.58-3.91,8.31,8.31,0,0,0-2.49-1,21.66,21.66,0,0,0-4.25-.6c-2.2-.13-4.41,0-6.62-.07-.23,0-.31.09-.29.3s0,.22,0,.33Q131.81,476.5,131.82,480.19Zm0-21v3.92q0,1.44,0,2.88c0,.23.05.35.31.34a62.82,62.82,0,0,0,7.13-.2,13.67,13.67,0,0,0,3.39-.83,5.13,5.13,0,0,0,3.18-3.67,10.6,10.6,0,0,0,.15-4.45,5,5,0,0,0-3.52-4.22,16.7,16.7,0,0,0-4.64-.82c-1.86-.09-3.72,0-5.58,0H132a.2.2,0,0,0-.22.23v.38Q131.81,456,131.81,459.19Z"
        transform="translate(4.96 5.26)" style="fill:#f79421" />
    </g>
    <circle cx="897.68" cy="478.42" r="61.24" style="fill:#f26227" />
    <circle cx="897.68" cy="478.42" r="53.6" style="fill:#d74b27" />
    <g>
      <path
        d="M890.36,423.81h4.82a5.2,5.2,0,0,0,1,.07c1.4.12,2.79.27,4.18.48a48.5,48.5,0,0,1,9.62,2.52,49.52,49.52,0,0,1,29.69,31,47.6,47.6,0,0,1,2,9.2c.13,1.13.24,2.26.28,3.39a1.52,1.52,0,0,0,.07.76v4a1.4,1.4,0,0,0-.07.76,41.81,41.81,0,0,1-.48,4.74,47.88,47.88,0,0,1-5,15.23,49.44,49.44,0,0,1-40.51,26.54,47.59,47.59,0,0,1-7.36-.06,48.57,48.57,0,0,1-9.43-1.69,49.12,49.12,0,0,1-27.44-19.8,49.17,49.17,0,0,1-8.35-23.6,12.63,12.63,0,0,0-.15-1.74c0-.56,0-1.12,0-1.69,0-1,0-2,0-3a.62.62,0,0,0,.07-.37,47.11,47.11,0,0,1,.76-6.37,48.1,48.1,0,0,1,4.09-12.43,49.49,49.49,0,0,1,32.44-26.4,50.07,50.07,0,0,1,8.62-1.36A7.27,7.27,0,0,0,890.36,423.81Zm-38.79,49.37A41.17,41.17,0,1,0,892.72,432,41.14,41.14,0,0,0,851.57,473.18Z"
        transform="translate(4.96 5.26)" style="fill:#f79421" />
      <path
        d="M905.13,471.72a19.6,19.6,0,0,1,5,1.56,10.85,10.85,0,0,1,4.87,4.34,11,11,0,0,1,1.4,4.28,16.25,16.25,0,0,1-.25,5.73,10,10,0,0,1-6.28,7.39,23.28,23.28,0,0,1-5.33,1.41c-1.23.19-2.46.33-3.71.41-.43,0-.44,0-.44.47v7.33c0,.46,0,.47-.47.47h-5.35c-.52,0-.49,0-.49-.49v-7.09c0-.59,0-.53-.54-.53h-5.34c-.43,0-.43,0-.43.45,0,2.38,0,4.76,0,7.14,0,.54.05.52-.5.52H882c-.5,0-.51,0-.51-.53v-7.33c0-.17-.06-.26-.24-.25H869.19c-.21,0-.31-.05-.31-.28q0-2.62,0-5.25c0-.26.1-.32.34-.32h3.26a9.33,9.33,0,0,0,2-.26,1.76,1.76,0,0,0,1.43-1.45,11,11,0,0,0,.26-2.62q0-10.32,0-20.62c0-2.28,0-4.57,0-6.85a11.55,11.55,0,0,0-.24-2.49,1.88,1.88,0,0,0-1.58-1.55,12.77,12.77,0,0,0-2.54-.23h-2.46c-.43,0-.43,0-.43-.45v-4.87c0-.55,0-.52.5-.52H881c.52,0,.52,0,.52-.5v-6.91c0-.12,0-.25,0-.37s.09-.26.26-.25h5.54c.56,0,.51-.05.51.5,0,2.32,0,4.64,0,6.95,0,.65-.05.58.58.58h5.3c.43,0,.43,0,.43-.45v-7c0-.11,0-.22,0-.33s.07-.26.25-.25h5.54c.55,0,.52-.07.52.55V449c0,.36,0,.36.37.38a30.62,30.62,0,0,1,5.63.92,16.45,16.45,0,0,1,3,1.1,8.5,8.5,0,0,1,4.65,5.6,13.19,13.19,0,0,1,.11,6.69,9.49,9.49,0,0,1-3.85,5.54,16.79,16.79,0,0,1-4.93,2.34C905.3,471.58,905.19,471.56,905.13,471.72Zm-17.31,11.44c0,2.55,0,5.11,0,7.66,0,.41,0,.41.41.41H891a40.14,40.14,0,0,0,5.9-.29,14.2,14.2,0,0,0,3.38-.85,5.85,5.85,0,0,0,3.5-3.85,11,11,0,0,0,.24-5.51,5.78,5.78,0,0,0-2.58-3.91,8.31,8.31,0,0,0-2.49-1,23.27,23.27,0,0,0-4.25-.6c-2.2-.13-4.41,0-6.62-.07-.23,0-.31.09-.29.31s0,.22,0,.33C887.81,478.25,887.81,480.7,887.82,483.16Zm0-21v3.92c0,1,0,1.92,0,2.89,0,.22.05.34.31.33a62.82,62.82,0,0,0,7.13-.2,13.67,13.67,0,0,0,3.39-.83,5.11,5.11,0,0,0,3.18-3.66,10.65,10.65,0,0,0,.15-4.46,5,5,0,0,0-3.52-4.22,16.68,16.68,0,0,0-4.64-.81c-1.86-.1-3.72,0-5.58-.05H888c-.15,0-.23.07-.22.23v.38Q887.8,458.92,887.81,462.16Z"
        transform="translate(4.96 5.26)" style="fill:#f79421" />
    </g>
  </g>
</svg>