<svg xmlns="http://www.w3.org/2000/svg" viewBox="0 0 1000 1000">
  <g id="mouth-3">
    <polyline
      points="593.71 755.91 593.71 806 565.88 775.95 565.88 866.1 519.48 816.01 500.92 876.12 500.92 765.93"
      style="fill:#4a2955" />
    <polyline
      points="407.39 754.37 407.39 804.45 435.22 774.4 435.22 864.55 481.62 814.47 500.18 874.57 500.18 764.38"
      style="fill:#161f26" />
    <path d="M231.54,555.85C278.36,685.75,383,776.21,504.63,776.21s226.28-90.46,273.09-220.36Z"
      transform="translate(0.28 0)" style="fill:#883a62" />
    <path d="M250.41,578.91c42.9,103,138.8,174.8,250.23,174.8S708,682,750.88,578.91Z"
      transform="translate(0.28 0)" style="fill:#001a1b" />
    <polyline points="637.79 575.88 637.79 686.06 582.11 565.86" style="fill:#efe1da" />
    <polyline points="554.27 575.88 554.27 625.96 535.71 565.86" style="fill:#efe1da" />
    <polyline points="526.43 575.88 526.43 615.95 507.88 615.95 507.88 575.88" style="fill:#efe1da" />
    <polyline points="609.95 736.15 554.27 676.05 554.27 756.18" style="fill:#dbb9be" />
    <polyline points="535.71 756.18 535.71 686.06 507.88 686.06 507.88 766.2" style="fill:#dbb9be" />
    <polyline points="371.19 576.11 371.19 686.3 426.87 566.1" style="fill:#efe1da" />
    <polyline points="454.71 576.11 454.71 626.2 473.27 566.1" style="fill:#efe1da" />
    <polyline points="482.55 576.11 482.55 616.18 501.11 616.18 501.11 576.11" style="fill:#efe1da" />
    <polyline points="399.03 736.38 454.71 676.28 454.71 756.41" style="fill:#dbb9be" />
    <polyline points="473.27 756.41 473.27 686.3 501.11 686.3 501.11 766.43" style="fill:#dbb9be" />
    <path
      d="M504.19,775.72c121.62,0,226.28-90.47,273.09-220.37H231.1C277.92,685.25,382.58,775.72,504.19,775.72Zm-.07-26.39c-100.07,0-186.2-68.19-224.72-166.1H728.84C690.32,681.14,604.19,749.33,504.12,749.33Z"
      transform="translate(0.28 0)" style="fill:#883a62" />
    <path
      d="M503.9,757.37c-107,0-199.06-76-240.25-185.07H744.14C703,681.4,610.88,757.37,503.9,757.37Z"
      transform="translate(0.28 0)"
      style="fill:none;stroke:#001a1b;stroke-miterlimit:10;stroke-width:3px" />
  </g>
</svg>