<svg xmlns="http://www.w3.org/2000/svg" viewBox="0 0 1000 1000">
  <g id="mouth-9">
    <rect x="408.97" y="594.72" width="206.84" height="137.97" style="fill:#172027" />
    <path d="M433.62,581.13V676l-17.73-20.73A108.14,108.14,0,0,1,390,585v-4.23Z"
      transform="translate(9.03 13)" style="fill:#efe1da" />
    <path d="M569.67,581.41v94.82L587.4,655.5a108.12,108.12,0,0,0,25.94-70.28V581Z"
      transform="translate(9.03 13)" style="fill:#dbb9be" />
    <polyline
      points="623.75 703.48 623.75 811.5 590.32 746.69 590.32 941.14 534.6 833.11 512.31 962.74 512.31 725.08"
      style="fill:#4d2f47" />
    <polyline
      points="401.6 702.76 401.6 810.79 435.03 745.97 435.03 940.42 490.75 832.4 513.04 962.03 513.04 724.37"
      style="fill:#883a62" />
  </g>
</svg>