<svg xmlns="http://www.w3.org/2000/svg" viewBox="0 0 1025.56 1025.56">
  <title>Bitcoin Face</title>
  <g style="isolation:isolate"><rect id="Background" width="1025.56" height="1025.56" style="#545392" /><g id="Body"><rect x="306.76" y="707.8" width="414.66" height="319.69" style="fill:#4e3049" />
    <path d="M211,1022.23H140v-90c0-94,76.49-170.5,170.5-170.5v71a99.61,99.61,0,0,0-99.5,99.5Z" transform="translate(4.96 5.26)" style="fill:#4e3049" />
    <path d="M877.46,1022.23h-71v-90a99.61,99.61,0,0,0-99.5-99.5v-71c94,0,170.5,76.48,170.5,170.5Z" transform="translate(4.96 5.26)" style="fill:#4e3049" />
    <rect x="279.42" y="757.49" width="45" height="108" style="fill:#4b2955" />
    <rect x="702.42" y="757.49" width="45" height="108" style="fill:#4b2955" /></g><g id="Head"><path d="M1655.62,485.77c0,201.68,163.49,365.18,365.18,365.18S2386,687.45,2386,485.77" transform="translate(-1516.64 -12.28)" style="fill:#f5b759" />
  <path d="M1678.44,485.77c0,189.08,153.28,342.35,342.36,342.35s342.35-153.27,342.35-342.35" transform="translate(-1516.64 -12.28)" style="fill:#eddfa1" />
  <path d="M1724.09,485.77c0,163.87,132.84,296.71,296.71,296.71s296.7-132.84,296.7-296.71" transform="translate(-1516.64 -12.28)" style="fill:#e28e26" />
  <polygon points="505.95 770.19 502.36 770.19 502.36 494.52 800.86 494.52 800.86 498.11 505.95 498.11 505.95 770.19" style="fill:#eddfa1" />
  <polygon points="708.37 680.24 496.43 491.85 778.6 585.9 777.47 589.3 511.87 500.78 710.75 677.56 708.37 680.24" style="fill:#eddfa1" />
  <rect x="2076.06" y="496.24" width="3.59" height="275.78" transform="translate(-1592.8 904.4) rotate(-24.44)" style="fill:#eddfa1" />
  <polygon points="505.95 770.19 502.36 770.19 502.36 498.11 207.45 498.11 207.45 494.52 505.95 494.52 505.95 770.19" style="fill:#eddfa1" />
  <polygon points="299.93 680.24 297.55 677.56 496.43 500.78 230.84 589.3 229.71 585.9 511.87 491.85 299.93 680.24" style="fill:#eddfa1" />
  <rect x="1825.85" y="632.33" width="275.77" height="3.59" transform="translate(-943.28 2146.71) rotate(-65.54)" style="fill:#eddfa1" />
  <g style="opacity:0.52;mix-blend-mode:overlay">
    <path d="M2192,601.68a13.21,13.21,0,1,1,13.21-13.2A13.21,13.21,0,0,1,2192,601.68Zm0-22.82a9.62,9.62,0,1,0,9.62,9.62A9.63,9.63,0,0,0,2192,578.86Z" transform="translate(-1516.64 -12.28)" style="fill:#b0a5b5" />
  </g>
  <g style="opacity:0.52;mix-blend-mode:overlay">
    <path d="M2169.15,578.86a13.21,13.21,0,1,1,13.2-13.21A13.23,13.23,0,0,1,2169.15,578.86Zm0-22.82a9.62,9.62,0,1,0,9.62,9.61A9.62,9.62,0,0,0,2169.15,556Z" transform="translate(-1516.64 -12.28)" style="fill:#b0a5b5" />
  </g>
  <g style="opacity:0.52;mix-blend-mode:overlay">
    <path d="M2271.85,578.86a24.62,24.62,0,1,1,24.62-24.62A24.64,24.64,0,0,1,2271.85,578.86Zm0-45.65a21,21,0,1,0,21,21A21.06,21.06,0,0,0,2271.85,533.21Z" transform="translate(-1516.64 -12.28)" style="fill:#b0a5b5" />
  </g>
  <g style="opacity:0.52;mix-blend-mode:overlay">
    <path d="M2214.8,533.21A13.21,13.21,0,1,1,2228,520,13.22,13.22,0,0,1,2214.8,533.21Zm0-22.82a9.62,9.62,0,1,0,9.61,9.62A9.62,9.62,0,0,0,2214.8,510.39Z" transform="translate(-1516.64 -12.28)" style="fill:#b0a5b5" />
  </g>
  <g style="opacity:0.52;mix-blend-mode:overlay">
    <path d="M1998,738.62A24.62,24.62,0,1,1,2022.59,714,24.64,24.64,0,0,1,1998,738.62Zm0-45.64a21,21,0,1,0,21,21A21,21,0,0,0,1998,693Z" transform="translate(-1516.64 -12.28)" style="fill:#b0a5b5" />
  </g>
  <g style="opacity:0.52;mix-blend-mode:overlay">
    <path d="M1963.74,693a13.21,13.21,0,1,1,13.2-13.21A13.22,13.22,0,0,1,1963.74,693Zm0-22.83a9.62,9.62,0,1,0,9.62,9.62A9.63,9.63,0,0,0,1963.74,670.15Z" transform="translate(-1516.64 -12.28)" style="fill:#b0a5b5" />
  </g>
  <g style="opacity:0.52;mix-blend-mode:overlay">
    <path d="M1895.27,601.68a13.21,13.21,0,1,1,13.2-13.2A13.22,13.22,0,0,1,1895.27,601.68Zm0-22.82a9.62,9.62,0,1,0,9.62,9.62A9.62,9.62,0,0,0,1895.27,578.86Z" transform="translate(-1516.64 -12.28)" style="fill:#b0a5b5" />
  </g>
  <g style="opacity:0.52;mix-blend-mode:overlay">
    <path d="M1826.8,556a13.21,13.21,0,1,1,13.2-13.21A13.22,13.22,0,0,1,1826.8,556Zm0-22.83a9.62,9.62,0,1,0,9.62,9.62A9.63,9.63,0,0,0,1826.8,533.21Z" transform="translate(-1516.64 -12.28)" style="fill:#b0a5b5" />
  </g>
  <g style="opacity:0.52;mix-blend-mode:overlay">
    <path d="M1758.33,556a13.21,13.21,0,1,1,13.2-13.21A13.22,13.22,0,0,1,1758.33,556Zm0-22.83a9.62,9.62,0,1,0,9.61,9.62A9.63,9.63,0,0,0,1758.33,533.21Z" transform="translate(-1516.64 -12.28)" style="fill:#b0a5b5" />
  </g>
  <g style="opacity:0.52;mix-blend-mode:overlay">
    <path d="M1792.56,647.33a24.62,24.62,0,1,1,24.62-24.62A24.65,24.65,0,0,1,1792.56,647.33Zm0-45.65a21,21,0,1,0,21,21A21.06,21.06,0,0,0,1792.56,601.68Z" transform="translate(-1516.64 -12.28)" style="fill:#b0a5b5" />
  </g>
  <g style="opacity:0.52;mix-blend-mode:overlay">
    <path d="M1826.8,670.15A13.21,13.21,0,1,1,1840,657,13.22,13.22,0,0,1,1826.8,670.15Zm0-22.82a9.62,9.62,0,1,0,9.62,9.62A9.62,9.62,0,0,0,1826.8,647.33Z" transform="translate(-1516.64 -12.28)" style="fill:#b0a5b5" />
  </g>
  <g style="opacity:0.52;mix-blend-mode:overlay">
    <path d="M2123.5,670.15a13.21,13.21,0,1,1,13.21-13.2A13.21,13.21,0,0,1,2123.5,670.15Zm0-22.82a9.62,9.62,0,1,0,9.62,9.62A9.63,9.63,0,0,0,2123.5,647.33Z" transform="translate(-1516.64 -12.28)" style="fill:#b0a5b5" />
  </g>
  <g style="opacity:0.52;mix-blend-mode:overlay">
    <path d="M2192,715.8a13.21,13.21,0,1,1,13.21-13.2A13.21,13.21,0,0,1,2192,715.8Zm0-22.82a9.62,9.62,0,1,0,9.62,9.62A9.63,9.63,0,0,0,2192,693Z" transform="translate(-1516.64 -12.28)" style="fill:#b0a5b5" />
  </g>
  <g style="opacity:0.52;mix-blend-mode:overlay">
    <path d="M2134.91,738.62A24.62,24.62,0,1,1,2159.53,714,24.64,24.64,0,0,1,2134.91,738.62Zm0-45.64a21,21,0,1,0,21,21A21.06,21.06,0,0,0,2134.91,693Z" transform="translate(-1516.64 -12.28)" style="fill:#b0a5b5" />
  </g>
  <g style="opacity:0.52;mix-blend-mode:overlay">
    <path d="M2237.62,647.33a13.21,13.21,0,1,1,13.2-13.2A13.22,13.22,0,0,1,2237.62,647.33Zm0-22.82a9.62,9.62,0,1,0,9.62,9.62A9.62,9.62,0,0,0,2237.62,624.51Z" transform="translate(-1516.64 -12.28)" style="fill:#b0a5b5" />
  </g>
  <g style="opacity:0.52;mix-blend-mode:overlay">
    <path d="M1986.56,578.86a13.21,13.21,0,1,1,13.2-13.21A13.22,13.22,0,0,1,1986.56,578.86Zm0-22.82a9.62,9.62,0,1,0,9.62,9.61A9.63,9.63,0,0,0,1986.56,556Z" transform="translate(-1516.64 -12.28)" style="fill:#b0a5b5" />
  </g>
  <g style="opacity:0.52;mix-blend-mode:overlay">
    <path d="M1940.91,533.21a13.21,13.21,0,1,1,13.21-13.2A13.21,13.21,0,0,1,1940.91,533.21Zm0-22.82a9.62,9.62,0,1,0,9.62,9.62A9.63,9.63,0,0,0,1940.91,510.39Z" transform="translate(-1516.64 -12.28)" style="fill:#b0a5b5" />
  </g>
  <g style="opacity:0.52;mix-blend-mode:overlay">
    <path d="M2100.68,556a13.21,13.21,0,1,1,13.2-13.21A13.23,13.23,0,0,1,2100.68,556Zm0-22.83a9.62,9.62,0,1,0,9.62,9.62A9.63,9.63,0,0,0,2100.68,533.21Z" transform="translate(-1516.64 -12.28)" style="fill:#b0a5b5" />
  </g>
  <g style="opacity:0.52;mix-blend-mode:overlay">
    <path d="M2077.85,601.68a13.21,13.21,0,1,1,13.21-13.2A13.21,13.21,0,0,1,2077.85,601.68Zm0-22.82a9.62,9.62,0,1,0,9.62,9.62A9.62,9.62,0,0,0,2077.85,578.86Z" transform="translate(-1516.64 -12.28)" style="fill:#b0a5b5" />
  </g>
  <g style="opacity:0.52;mix-blend-mode:overlay">
    <path d="M2009.38,652.06a17.94,17.94,0,1,1,17.94-17.93A18,18,0,0,1,2009.38,652.06Zm0-32.28a14.35,14.35,0,1,0,14.35,14.35A14.35,14.35,0,0,0,2009.38,619.78Z" transform="translate(-1516.64 -12.28)" style="fill:#b0a5b5" />
  </g>
  <g style="opacity:0.52;mix-blend-mode:overlay">
    <path d="M2055,715.8a13.21,13.21,0,1,1,13.21-13.2A13.21,13.21,0,0,1,2055,715.8Zm0-22.82a9.62,9.62,0,1,0,9.62,9.62A9.63,9.63,0,0,0,2055,693Z" transform="translate(-1516.64 -12.28)" style="fill:#b0a5b5" />
  </g>
  <g style="opacity:0.52;mix-blend-mode:overlay">
    <path d="M2077.85,766.17a17.93,17.93,0,1,1,17.94-17.93A18,18,0,0,1,2077.85,766.17Zm0-32.27a14.35,14.35,0,1,0,14.35,14.34A14.35,14.35,0,0,0,2077.85,733.9Z" transform="translate(-1516.64 -12.28)" style="fill:#b0a5b5" />
  </g>
  <g style="opacity:0.52;mix-blend-mode:overlay">
    <path d="M1872.44,715.8a13.21,13.21,0,1,1,13.21-13.2A13.21,13.21,0,0,1,1872.44,715.8Zm0-22.82a9.62,9.62,0,1,0,9.62,9.62A9.63,9.63,0,0,0,1872.44,693Z" transform="translate(-1516.64 -12.28)" style="fill:#b0a5b5" />
  </g>
  <rect x="1655.62" y="485.77" width="730.35" height="22.82" transform="translate(2524.95 982.08) rotate(-180)" style="fill:#b0a5b5;opacity:0.52;mix-blend-mode:overlay" />
  <path d="M2386.88,502.87c0-201.68-163.5-365.18-365.18-365.18s-365.17,163.5-365.17,365.18" transform="translate(-1516.64 -12.28)" style="fill:#f5b759" />
  <path d="M2364.05,502.87c0-189.08-153.27-342.36-342.35-342.36s-342.35,153.28-342.35,342.36" transform="translate(-1516.64 -12.28)" style="fill:#eddfa1" />
  <path d="M2318.41,502.87c0-163.87-132.84-296.71-296.71-296.71S1725,339,1725,502.87" transform="translate(-1516.64 -12.28)" style="fill:#e28e26" />
  <polygon points="503.26 193.88 506.85 193.88 506.85 469.55 208.35 469.55 208.35 465.96 503.26 465.96 503.26 193.88" style="fill:#eddfa1" />
  <polygon points="300.84 283.83 512.78 472.22 230.61 378.17 231.75 374.76 497.34 463.29 298.46 286.51 300.84 283.83" style="fill:#eddfa1" />
  <rect x="1962.85" y="216.63" width="3.59" height="275.78" transform="translate(-1487.24 832.48) rotate(-24.44)" style="fill:#eddfa1" />
  <polygon points="503.26 193.88 506.85 193.88 506.85 465.96 801.76 465.96 801.76 469.55 503.26 469.55 503.26 193.88" style="fill:#eddfa1" />
  <polygon points="709.28 283.83 711.66 286.51 512.78 463.29 778.37 374.76 779.51 378.17 497.34 472.22 709.28 283.83" style="fill:#eddfa1" />
  <rect x="1940.87" y="352.72" width="275.77" height="3.59" transform="translate(-621.38 2087.58) rotate(-65.54)" style="fill:#eddfa1" />
  <g style="opacity:0.52;mix-blend-mode:overlay">
    <path d="M1850.53,387a13.2,13.2,0,1,1-13.21,13.2A13.21,13.21,0,0,1,1850.53,387Zm0,22.82a9.62,9.62,0,1,0-9.62-9.62A9.63,9.63,0,0,0,1850.53,409.78Z" transform="translate(-1516.64 -12.28)" style="fill:#b0a5b5" />
  </g>
  <g style="opacity:0.52;mix-blend-mode:overlay">
    <path d="M1873.35,409.78A13.21,13.21,0,1,1,1860.14,423,13.22,13.22,0,0,1,1873.35,409.78Zm0,22.82a9.62,9.62,0,1,0-9.62-9.61A9.63,9.63,0,0,0,1873.35,432.6Z" transform="translate(-1516.64 -12.28)" style="fill:#b0a5b5" />
  </g>
  <g style="opacity:0.52;mix-blend-mode:overlay">
    <path d="M1770.64,409.78A24.62,24.62,0,1,1,1746,434.4,24.64,24.64,0,0,1,1770.64,409.78Zm0,45.65a21,21,0,1,0-21-21A21.06,21.06,0,0,0,1770.64,455.43Z" transform="translate(-1516.64 -12.28)" style="fill:#b0a5b5" />
  </g>
  <g style="opacity:0.52;mix-blend-mode:overlay">
    <path d="M1827.7,455.43a13.2,13.2,0,1,1-13.2,13.2A13.22,13.22,0,0,1,1827.7,455.43Zm0,22.82a9.62,9.62,0,1,0-9.62-9.62A9.64,9.64,0,0,0,1827.7,478.25Z" transform="translate(-1516.64 -12.28)" style="fill:#b0a5b5" />
  </g>
  <g style="opacity:0.52;mix-blend-mode:overlay">
    <path d="M2044.53,250a24.62,24.62,0,1,1-24.62,24.62A24.65,24.65,0,0,1,2044.53,250Zm0,45.65a21,21,0,1,0-21-21A21,21,0,0,0,2044.53,295.66Z" transform="translate(-1516.64 -12.28)" style="fill:#b0a5b5" />
  </g>
  <g style="opacity:0.52;mix-blend-mode:overlay">
    <path d="M2078.76,295.66a13.21,13.21,0,1,1-13.21,13.21A13.22,13.22,0,0,1,2078.76,295.66Zm0,22.82a9.62,9.62,0,1,0-9.62-9.61A9.63,9.63,0,0,0,2078.76,318.48Z" transform="translate(-1516.64 -12.28)" style="fill:#b0a5b5" />
  </g>
  <g style="opacity:0.52;mix-blend-mode:overlay">
    <path d="M2147.23,387a13.2,13.2,0,1,1-13.21,13.2A13.21,13.21,0,0,1,2147.23,387Zm0,22.82a9.62,9.62,0,1,0-9.62-9.62A9.64,9.64,0,0,0,2147.23,409.78Z" transform="translate(-1516.64 -12.28)" style="fill:#b0a5b5" />
  </g>
  <g style="opacity:0.52;mix-blend-mode:overlay">
    <path d="M2215.7,432.6a13.21,13.21,0,1,1-13.21,13.21A13.22,13.22,0,0,1,2215.7,432.6Zm0,22.83a9.62,9.62,0,1,0-9.62-9.62A9.64,9.64,0,0,0,2215.7,455.43Z" transform="translate(-1516.64 -12.28)" style="fill:#b0a5b5" />
  </g>
  <g style="opacity:0.52;mix-blend-mode:overlay">
    <path d="M2284.17,432.6a13.21,13.21,0,1,1-13.2,13.21A13.22,13.22,0,0,1,2284.17,432.6Zm0,22.83a9.62,9.62,0,1,0-9.62-9.62A9.64,9.64,0,0,0,2284.17,455.43Z" transform="translate(-1516.64 -12.28)" style="fill:#b0a5b5" />
  </g>
  <g style="opacity:0.52;mix-blend-mode:overlay">
    <path d="M2249.94,341.31a24.62,24.62,0,1,1-24.62,24.62A24.64,24.64,0,0,1,2249.94,341.31Zm0,45.65a21,21,0,1,0-21-21A21.06,21.06,0,0,0,2249.94,387Z" transform="translate(-1516.64 -12.28)" style="fill:#b0a5b5" />
  </g>
  <g style="opacity:0.52;mix-blend-mode:overlay">
    <path d="M2215.7,318.48a13.21,13.21,0,1,1-13.21,13.21A13.22,13.22,0,0,1,2215.7,318.48Zm0,22.83a9.62,9.62,0,1,0-9.62-9.62A9.64,9.64,0,0,0,2215.7,341.31Z" transform="translate(-1516.64 -12.28)" style="fill:#b0a5b5" />
  </g>
  <g style="opacity:0.52;mix-blend-mode:overlay">
    <path d="M1919,318.48a13.21,13.21,0,1,1-13.21,13.21A13.22,13.22,0,0,1,1919,318.48Zm0,22.83a9.62,9.62,0,1,0-9.62-9.62A9.63,9.63,0,0,0,1919,341.31Z" transform="translate(-1516.64 -12.28)" style="fill:#b0a5b5" />
  </g>
  <g style="opacity:0.52;mix-blend-mode:overlay">
    <path d="M1850.53,272.84a13.21,13.21,0,1,1-13.21,13.2A13.21,13.21,0,0,1,1850.53,272.84Zm0,22.82a9.62,9.62,0,1,0-9.62-9.62A9.62,9.62,0,0,0,1850.53,295.66Z" transform="translate(-1516.64 -12.28)" style="fill:#b0a5b5" />
  </g>
  <g style="opacity:0.52;mix-blend-mode:overlay">
    <path d="M1907.58,250A24.62,24.62,0,1,1,1883,274.63,24.65,24.65,0,0,1,1907.58,250Zm0,45.65a21,21,0,1,0-21-21A21,21,0,0,0,1907.58,295.66Z" transform="translate(-1516.64 -12.28)" style="fill:#b0a5b5" />
  </g>
  <g style="opacity:0.52;mix-blend-mode:overlay">
    <path d="M1804.88,341.31a13.21,13.21,0,1,1-13.21,13.2A13.21,13.21,0,0,1,1804.88,341.31Zm0,22.82a9.62,9.62,0,1,0-9.62-9.62A9.63,9.63,0,0,0,1804.88,364.13Z" transform="translate(-1516.64 -12.28)" style="fill:#b0a5b5" />
  </g>
  <g style="opacity:0.52;mix-blend-mode:overlay">
    <path d="M2055.94,409.78A13.21,13.21,0,1,1,2042.73,423,13.22,13.22,0,0,1,2055.94,409.78Zm0,22.82a9.62,9.62,0,1,0-9.62-9.61A9.62,9.62,0,0,0,2055.94,432.6Z" transform="translate(-1516.64 -12.28)" style="fill:#b0a5b5" />
  </g>
  <g style="opacity:0.52;mix-blend-mode:overlay">
    <path d="M2101.58,455.43a13.2,13.2,0,1,1-13.2,13.2A13.22,13.22,0,0,1,2101.58,455.43Zm0,22.82a9.62,9.62,0,1,0-9.62-9.62A9.63,9.63,0,0,0,2101.58,478.25Z" transform="translate(-1516.64 -12.28)" style="fill:#b0a5b5" />
  </g>
  <g style="opacity:0.52;mix-blend-mode:overlay">
    <path d="M1941.82,432.6a13.21,13.21,0,1,1-13.21,13.21A13.22,13.22,0,0,1,1941.82,432.6Zm0,22.83a9.62,9.62,0,1,0-9.62-9.62A9.64,9.64,0,0,0,1941.82,455.43Z" transform="translate(-1516.64 -12.28)" style="fill:#b0a5b5" />
  </g>
  <g style="opacity:0.52;mix-blend-mode:overlay">
    <path d="M1964.64,387a13.2,13.2,0,1,1-13.2,13.2A13.22,13.22,0,0,1,1964.64,387Zm0,22.82a9.62,9.62,0,1,0-9.62-9.62A9.64,9.64,0,0,0,1964.64,409.78Z" transform="translate(-1516.64 -12.28)" style="fill:#b0a5b5" />
  </g>
  <g style="opacity:0.52;mix-blend-mode:overlay">
    <path d="M2033.11,336.58a17.93,17.93,0,1,1-17.93,17.93A18,18,0,0,1,2033.11,336.58Zm0,32.28a14.35,14.35,0,1,0-14.34-14.35A14.37,14.37,0,0,0,2033.11,368.86Z" transform="translate(-1516.64 -12.28)" style="fill:#b0a5b5" />
  </g>
  <g style="opacity:0.52;mix-blend-mode:overlay">
    <path d="M1987.47,272.84a13.21,13.21,0,1,1-13.21,13.2A13.21,13.21,0,0,1,1987.47,272.84Zm0,22.82a9.62,9.62,0,1,0-9.62-9.62A9.62,9.62,0,0,0,1987.47,295.66Z" transform="translate(-1516.64 -12.28)" style="fill:#b0a5b5" />
  </g>
  <g style="opacity:0.52;mix-blend-mode:overlay">
    <path d="M1964.64,222.46a17.94,17.94,0,1,1-17.93,17.94A18,18,0,0,1,1964.64,222.46Zm0,32.28a14.35,14.35,0,1,0-14.34-14.34A14.36,14.36,0,0,0,1964.64,254.74Z" transform="translate(-1516.64 -12.28)" style="fill:#b0a5b5" />
  </g>
  <g style="opacity:0.52;mix-blend-mode:overlay">
    <path d="M2170.05,272.84a13.21,13.21,0,1,1-13.2,13.2A13.22,13.22,0,0,1,2170.05,272.84Zm0,22.82a9.62,9.62,0,1,0-9.62-9.62A9.62,9.62,0,0,0,2170.05,295.66Z" transform="translate(-1516.64 -12.28)" style="fill:#b0a5b5" />
  </g>
  <rect x="139.88" y="467.76" width="730.35" height="22.82" style="fill:#b0a5b5;opacity:0.52;mix-blend-mode:overlay" /></g><g id="Face-Accessory"><polyline points="813.51 585 873 644.49 754.02 644.49" style="fill:#e66225" />
  <polyline points="797.28 633.67 845.96 682.35 751.48 679.91" style="fill:#e66225" />
  <polyline points="724.93 648.3 784.43 707.8 665.44 707.8" style="fill:#e66225" />
  <polyline points="708.71 696.98 766.78 748.75 659.7 748.75" style="fill:#e66225" />
  <polyline points="197.19 585 137.7 644.49 256.68 644.49" style="fill:#e28e26" />
  <polyline points="213.42 633.67 164.74 682.35 259.22 679.91" style="fill:#e28e26" />
  <polyline points="285.76 648.3 226.27 707.8 345.26 707.8" style="fill:#e28e26" />
  <polyline points="301.99 696.98 243.92 748.75 351 748.75" style="fill:#e28e26" /></g><g id="Earrings"><circle cx="141.68" cy="475.44" r="61.24" style="fill:#f26227" />
    <circle cx="141.68" cy="475.44" r="53.6" style="fill:#d74b27" />
    <g>
      <path d="M134.36,420.84h4.82a6.06,6.06,0,0,0,1,.07c1.4.12,2.79.26,4.18.48A48.47,48.47,0,0,1,154,423.9a49.56,49.56,0,0,1,29.69,31,47.44,47.44,0,0,1,2,9.2c.13,1.13.24,2.25.28,3.39a1.48,1.48,0,0,0,.07.75v4a1.37,1.37,0,0,0-.07.75,42.22,42.22,0,0,1-.48,4.75,47.88,47.88,0,0,1-5,15.23,49.3,49.3,0,0,1-47.87,26.48,47.84,47.84,0,0,1-9.43-1.7,49.07,49.07,0,0,1-27.44-19.8,49.09,49.09,0,0,1-8.35-23.6,12.49,12.49,0,0,0-.15-1.73c0-.57,0-1.13,0-1.69,0-1,0-2,0-3.05a.57.57,0,0,0,.07-.36,47.07,47.07,0,0,1,.76-6.38,48.23,48.23,0,0,1,4.09-12.43,49.32,49.32,0,0,1,41.06-27.75A9.08,9.08,0,0,0,134.36,420.84ZM95.57,470.21A41.17,41.17,0,1,0,136.72,429,41.12,41.12,0,0,0,95.57,470.21Z" transform="translate(4.96 5.26)" style="fill:#f79421" />
      <path d="M149.13,468.75a19.6,19.6,0,0,1,5.05,1.56,10.88,10.88,0,0,1,4.87,4.33,11.08,11.08,0,0,1,1.4,4.28,16.24,16.24,0,0,1-.25,5.73,10.06,10.06,0,0,1-6.28,7.4,23.28,23.28,0,0,1-5.33,1.41c-1.23.19-2.46.33-3.71.4-.43,0-.44,0-.44.48v7.33c0,.46,0,.46-.47.46h-5.35c-.52,0-.49,0-.49-.48v-7.09c0-.59.05-.53-.54-.53h-5.34c-.43,0-.43,0-.43.44,0,2.38,0,4.76,0,7.14,0,.55.05.52-.5.52H126c-.5,0-.51,0-.51-.52v-7.33c0-.17-.06-.27-.24-.25s-.26,0-.38,0H113.19c-.21,0-.31,0-.31-.29q0-2.62,0-5.25c0-.25.1-.32.34-.31h3.26a9.33,9.33,0,0,0,2-.26,1.76,1.76,0,0,0,1.43-1.45,11,11,0,0,0,.26-2.63q0-10.31,0-20.61c0-2.29,0-4.57,0-6.86a11.52,11.52,0,0,0-.24-2.48,1.88,1.88,0,0,0-1.58-1.55,12.77,12.77,0,0,0-2.54-.23c-.82,0-1.64,0-2.46,0-.43,0-.43,0-.43-.45v-4.87c0-.56,0-.52.5-.52H125c.52,0,.52,0,.52-.51v-6.9c0-.12,0-.25,0-.38s.09-.25.26-.24h5.54c.56,0,.51-.06.51.5,0,2.32,0,4.63,0,6.95,0,.65,0,.58.58.58h5.3c.43,0,.43,0,.43-.46v-7c0-.11,0-.22,0-.33s.07-.26.25-.25h5.54c.55,0,.52-.08.52.54V446c0,.36,0,.35.37.38a30.6,30.6,0,0,1,5.63.91,16.49,16.49,0,0,1,3,1.11,8.5,8.5,0,0,1,4.65,5.6,13.15,13.15,0,0,1,.11,6.68,9.54,9.54,0,0,1-3.85,5.55,17,17,0,0,1-4.93,2.34C149.3,468.61,149.19,468.58,149.13,468.75Zm-17.31,11.44c0,2.55,0,5.1,0,7.66,0,.41,0,.41.41.41H135a40.14,40.14,0,0,0,5.9-.28,14.22,14.22,0,0,0,3.38-.86,5.83,5.83,0,0,0,3.5-3.84,11,11,0,0,0,.24-5.51,5.78,5.78,0,0,0-2.58-3.91,8.31,8.31,0,0,0-2.49-1,21.66,21.66,0,0,0-4.25-.6c-2.2-.13-4.41,0-6.62-.07-.23,0-.31.09-.29.3s0,.22,0,.33Q131.81,476.5,131.82,480.19Zm0-21v3.92q0,1.44,0,2.88c0,.23.05.35.31.34a62.82,62.82,0,0,0,7.13-.2,13.67,13.67,0,0,0,3.39-.83,5.13,5.13,0,0,0,3.18-3.67,10.6,10.6,0,0,0,.15-4.45,5,5,0,0,0-3.52-4.22,16.7,16.7,0,0,0-4.64-.82c-1.86-.09-3.72,0-5.58,0H132a.2.2,0,0,0-.22.23v.38Q131.81,456,131.81,459.19Z" transform="translate(4.96 5.26)" style="fill:#f79421" />
    </g>
    <circle cx="897.68" cy="478.42" r="61.24" style="fill:#f26227" />
    <circle cx="897.68" cy="478.42" r="53.6" style="fill:#d74b27" />
    <g>
      <path d="M890.36,423.81h4.82a5.2,5.2,0,0,0,1,.07c1.4.12,2.79.27,4.18.48a48.5,48.5,0,0,1,9.62,2.52,49.52,49.52,0,0,1,29.69,31,47.6,47.6,0,0,1,2,9.2c.13,1.13.24,2.26.28,3.39a1.52,1.52,0,0,0,.07.76v4a1.4,1.4,0,0,0-.07.76,41.81,41.81,0,0,1-.48,4.74,47.88,47.88,0,0,1-5,15.23,49.44,49.44,0,0,1-40.51,26.54,47.59,47.59,0,0,1-7.36-.06,48.57,48.57,0,0,1-9.43-1.69,49.12,49.12,0,0,1-27.44-19.8,49.17,49.17,0,0,1-8.35-23.6,12.63,12.63,0,0,0-.15-1.74c0-.56,0-1.12,0-1.69,0-1,0-2,0-3a.62.62,0,0,0,.07-.37,47.11,47.11,0,0,1,.76-6.37,48.1,48.1,0,0,1,4.09-12.43,49.49,49.49,0,0,1,32.44-26.4,50.07,50.07,0,0,1,8.62-1.36A7.27,7.27,0,0,0,890.36,423.81Zm-38.79,49.37A41.17,41.17,0,1,0,892.72,432,41.14,41.14,0,0,0,851.57,473.18Z" transform="translate(4.96 5.26)" style="fill:#f79421" />
      <path d="M905.13,471.72a19.6,19.6,0,0,1,5,1.56,10.85,10.85,0,0,1,4.87,4.34,11,11,0,0,1,1.4,4.28,16.25,16.25,0,0,1-.25,5.73,10,10,0,0,1-6.28,7.39,23.28,23.28,0,0,1-5.33,1.41c-1.23.19-2.46.33-3.71.41-.43,0-.44,0-.44.47v7.33c0,.46,0,.47-.47.47h-5.35c-.52,0-.49,0-.49-.49v-7.09c0-.59,0-.53-.54-.53h-5.34c-.43,0-.43,0-.43.45,0,2.38,0,4.76,0,7.14,0,.54.05.52-.5.52H882c-.5,0-.51,0-.51-.53v-7.33c0-.17-.06-.26-.24-.25H869.19c-.21,0-.31-.05-.31-.28q0-2.62,0-5.25c0-.26.1-.32.34-.32h3.26a9.33,9.33,0,0,0,2-.26,1.76,1.76,0,0,0,1.43-1.45,11,11,0,0,0,.26-2.62q0-10.32,0-20.62c0-2.28,0-4.57,0-6.85a11.55,11.55,0,0,0-.24-2.49,1.88,1.88,0,0,0-1.58-1.55,12.77,12.77,0,0,0-2.54-.23h-2.46c-.43,0-.43,0-.43-.45v-4.87c0-.55,0-.52.5-.52H881c.52,0,.52,0,.52-.5v-6.91c0-.12,0-.25,0-.37s.09-.26.26-.25h5.54c.56,0,.51-.05.51.5,0,2.32,0,4.64,0,6.95,0,.65-.05.58.58.58h5.3c.43,0,.43,0,.43-.45v-7c0-.11,0-.22,0-.33s.07-.26.25-.25h5.54c.55,0,.52-.07.52.55V449c0,.36,0,.36.37.38a30.62,30.62,0,0,1,5.63.92,16.45,16.45,0,0,1,3,1.1,8.5,8.5,0,0,1,4.65,5.6,13.19,13.19,0,0,1,.11,6.69,9.49,9.49,0,0,1-3.85,5.54,16.79,16.79,0,0,1-4.93,2.34C905.3,471.58,905.19,471.56,905.13,471.72Zm-17.31,11.44c0,2.55,0,5.11,0,7.66,0,.41,0,.41.41.41H891a40.14,40.14,0,0,0,5.9-.29,14.2,14.2,0,0,0,3.38-.85,5.85,5.85,0,0,0,3.5-3.85,11,11,0,0,0,.24-5.51,5.78,5.78,0,0,0-2.58-3.91,8.31,8.31,0,0,0-2.49-1,23.27,23.27,0,0,0-4.25-.6c-2.2-.13-4.41,0-6.62-.07-.23,0-.31.09-.29.31s0,.22,0,.33C887.81,478.25,887.81,480.7,887.82,483.16Zm0-21v3.92c0,1,0,1.92,0,2.89,0,.22.05.34.31.33a62.82,62.82,0,0,0,7.13-.2,13.67,13.67,0,0,0,3.39-.83,5.11,5.11,0,0,0,3.18-3.66,10.65,10.65,0,0,0,.15-4.46,5,5,0,0,0-3.52-4.22,16.68,16.68,0,0,0-4.64-.81c-1.86-.1-3.72,0-5.58-.05H888c-.15,0-.23.07-.22.23v.38Q887.8,458.92,887.81,462.16Z" transform="translate(4.96 5.26)" style="fill:#f79421" />
    </g></g><g id="Ears"><path d="M1839.6,188.25l-5.94-23.07c-15.25-59.3-86.93-82.68-134.21-43.78l-94.06,77.38,136.67,33.28,65.18-53.62,17.87,21.73" transform="translate(-1516.64 -12.28)" style="fill:#bb3f26" />
  <polygon points="320.31 203.1 296.48 174.13 318.21 156.26 327.55 197.14 320.31 203.1" style="fill:#bb3f26" />
  <path d="M2211,188.92l5.93-23.07c15.25-59.29,86.93-82.67,134.21-43.78l94.06,77.38-136.67,33.28-65.18-53.62-17.87,21.73" transform="translate(-1516.64 -12.28)" style="fill:#a41e21" />
  <polygon points="697.01 203.77 720.84 174.81 699.12 156.93 689.77 197.81 697.01 203.77" style="fill:#bb3f26" /></g><g id="Mouth"><path d="M1839.46,610.2h0a298.61,298.61,0,0,0,171.26,54h13.83v-54" transform="translate(-1516.64 -12.28)" style="fill:#bb3f26" />
    <path d="M2210.76,609.92h0a298.59,298.59,0,0,1-171.25,54h-13.83v-54" transform="translate(-1516.64 -12.28)" style="fill:#a41e21" />
    <polygon points="507.9 567.07 484.77 543.93 315.11 597.92 507.9 597.92 507.9 567.07" style="fill:#6c1d10" />
    <polygon points="509.04 566.79 532.17 543.65 701.83 597.64 509.04 597.64 509.04 566.79" style="fill:#3e1c13" /></g><g id="Eyebrows"><path d="M1711.8,303.43h237.5l-31.67-47.5h-84.77A151.22,151.22,0,0,0,1755,277.49Z" transform="translate(-1516.64 -12.28)" style="fill:#6c1d10" />
    <path d="M2312,305.71h-237.5l31.67-47.5H2191a151.2,151.2,0,0,1,77.82,21.56Z" transform="translate(-1516.64 -12.28)" style="fill:#3e1c13" /></g><g id="Glasses"><line x1="389.25" y1="459.75" x2="597.02" y2="459.75" style="fill:none;stroke:#f26227;stroke-miterlimit:10;stroke-width:12px" />
  <circle cx="359.39" cy="505" r="68.33" style="fill:#f26227" />
  <circle cx="359.39" cy="505" r="59.8" style="fill:#d74b27" />
  <circle cx="644.12" cy="506.85" r="68.33" style="fill:#f26227" />
  <circle cx="644.11" cy="506.85" r="59.8" style="fill:#d74b27" />
  <rect x="1853.51" y="462.56" width="39.13" height="106.63" transform="translate(1316.12 2192.84) rotate(-135)" style="fill:#faa625" />
  <rect x="2144.46" y="467.23" width="39.13" height="106.63" transform="translate(1809.5 2406.53) rotate(-135)" style="fill:#faa625" /></g><g id="Eyes"><circle cx="356.6" cy="399.4" r="104.44" style="fill:#071c1d" />
    <circle cx="356.6" cy="399.4" r="64.65" style="fill:#f0e2db" />
    <circle cx="356.6" cy="399.4" r="44.76" style="fill:#ed7e29" />
    <polyline points="361.58 345.25 361.58 385.03 396.39 350.22" style="fill:#f0e2db" />
    <circle cx="356.84" cy="399.23" r="74.77" style="fill:none;stroke:#893c63;stroke-miterlimit:10;stroke-width:4px" />
    <circle cx="674.77" cy="396.17" r="104.44" style="fill:#071c1d" />
    <circle cx="674.77" cy="396.17" r="64.65" style="fill:#f0e2db" />
    <circle cx="674.77" cy="396.17" r="44.76" style="fill:#ed7e29" />
    <polyline points="679.74 342.01 679.74 381.8 714.55 346.99" style="fill:#f0e2db" />
    <circle cx="675" cy="396" r="74.77" style="fill:none;stroke:#893c63;stroke-miterlimit:10;stroke-width:4px" />
    <polyline points="754.2 330.06 849.91 406.62 754.2 406.62" style="fill:#071c1d" />
    <polyline points="275.45 330.06 179.74 406.62 275.45 406.62" style="fill:#071c1d" /></g><g id="Nose"><path d="M563.25,543.74h0A55.21,55.21,0,0,1,508,488.53V389.74H569.6a58.25,58.25,0,0,1,56.72,71.51L617,501.1A55.22,55.22,0,0,1,563.25,543.74Z" transform="translate(4.96 5.26)" style="fill:#4e3047" />
    <circle cx="567" cy="495" r="27" style="fill:#3e2f39" />
    <path d="M453,543.29h0a55.21,55.21,0,0,0,55.21-55.21V389.29H446.67A58.26,58.26,0,0,0,390,460.81l9.31,39.84A55.2,55.2,0,0,0,453,543.29Z" transform="translate(4.96 5.26)" style="fill:#893c63" />
    <circle cx="459.19" cy="494.55" r="27" style="fill:#3e2f39" />
    <circle cx="567.5" cy="494.5" r="36.5" style="fill:#ec6547" />
    <circle cx="458.69" cy="494.05" r="36.5" style="fill:#ec6547" /></g><g id="Hat"><path d="M700.6,287.1l91.71-115.5v36.08c0,25.56-20.29,49.43-54.06,63.61Z" transform="translate(4.96 5.26)" style="fill:#de4926" />
    <path d="M328.77,285.73,237.06,170.22v36.09c0,25.56,20.29,49.43,54.06,63.61Z" transform="translate(4.96 5.26)" style="fill:#f26227" />
    <path d="M483.31,227.36v-154l-10.83,6.82c-61.55,38.76-61.55,101.61,0,140.37Z" transform="translate(4.96 5.26)" style="fill:#bc3373" />
    <polyline points="488.26 232.62 365.99 136.37 365.99 194.12 488.26 290.37" style="fill:#8f98c5" />
    <path d="M361,188.86V15.6L324.34,61.82c-36.18,45.56-55,95.8-55,146.75v57.29h196" transform="translate(4.96 5.26)" style="fill:#bc3373" />
    <path d="M546.07,228.73v-154l10.82,6.82c61.55,38.76,61.55,101.61,0,140.37Z" transform="translate(4.96 5.26)" style="fill:#542e5b" />
    <polyline points="551.03 233.99 673.3 137.74 673.3 195.49 551.03 291.74" style="fill:#4f5090" />
    <path d="M668.34,190.23V17L705,63.19c36.18,45.57,55,95.81,55,146.75v57.29H565.92" transform="translate(4.96 5.26)" style="fill:#542e5b" />
    <path d="M483.31,227.36,391.6,111.85v36.09c0,25.56,20.29,49.43,54.06,63.61Z" transform="translate(4.96 5.26)" style="fill:#f26227" />
    <path d="M546.07,228.73l91.7-115.5v36.08c0,25.56-20.28,49.43-54.06,63.61Z" transform="translate(4.96 5.26)" style="fill:#de4926" />
    <circle cx="520.46" cy="230.24" r="67.19" style="fill:#f26227" />
    <circle cx="520.45" cy="230.24" r="58.81" style="fill:#d74b27" /></g></g></svg>